<svg width="110" height="26" viewBox="0 0 110 26" fill="none" xmlns="http://www.w3.org/2000/svg">
<path d="M109.687 9.0374C108.528 9.121 105.882 9.44458 105.125 9.55296C104.385 5.5152 102.334 2.64325 99.3417 1.96668C93.2451 0.584124 87.0937 8.6875 82.8877 23.6325L86.0293 24.4948C90.0706 10.1351 95.3646 4.37107 98.6143 5.10647C100.1 5.44243 101.386 7.28017 101.913 10.1366C94.1434 11.8985 92.5271 15.2488 92.709 17.9845C92.8563 20.2217 94.065 22.0657 96.0245 23.0426C98.0029 24.0288 100.414 23.9483 102.165 22.8398C104.366 21.4448 104.703 19.412 104.924 18.0666C104.924 18.0666 105.354 14.9841 105.388 13.7269C104.164 13.905 103.037 14.1279 102.105 14.3757C102.051 15.2365 101.707 17.5479 101.707 17.5479C101.5 18.8005 101.337 19.539 100.405 20.1304C99.6301 20.6212 98.4324 20.6382 97.4934 20.1691C96.846 19.8455 96.0528 19.1689 95.9618 17.7755C95.838 15.8914 98.0437 14.3617 102.165 13.3724C102.179 13.3709 102.189 13.3647 102.203 13.3616C105.189 12.6865 110 12.2407 110 12.2407L109.687 9.0374Z" fill="black"/>
<path d="M72.5129 5.9917C68.7929 5.9917 65.7783 8.96892 65.7783 12.6428C65.7783 16.3168 68.7929 19.294 72.5129 19.294C76.2329 19.294 79.2475 16.3168 79.2475 12.6428C79.2475 8.96892 76.2329 5.9917 72.5129 5.9917ZM72.5129 16.422C70.3997 16.422 68.6863 14.7298 68.6863 12.6428C68.6863 10.5558 70.3997 8.86365 72.5129 8.86365C74.6261 8.86365 76.3395 10.5558 76.3395 12.6428C76.3395 14.7298 74.6261 16.422 72.5129 16.422Z" fill="black"/>
<path d="M35.2546 0H32.0315V18.8325H35.2546V0Z" fill="black"/>
<path d="M9.97334 6.21155V6.82929C9.01081 6.30444 7.91346 5.9917 6.7346 5.9917C3.01458 5.9917 0 8.96892 0 12.6428C0 16.3168 3.01458 19.294 6.7346 19.294C7.91503 19.294 9.01394 18.9812 9.97334 18.4502V19.0679H13.1964V6.21155H9.97334ZM6.73616 16.422C4.62298 16.422 2.90954 14.7298 2.90954 12.6428C2.90954 10.5558 4.62298 8.86365 6.73616 8.86365C8.84935 8.86365 10.5628 10.5558 10.5628 12.6428C10.5628 14.7298 8.84935 16.422 6.73616 16.422Z" fill="black"/>
<path d="M22.7776 5.9917C21.6003 5.9917 20.5014 6.30444 19.5389 6.82929V6.21155H16.3158V25.0735H19.5389V18.4471C20.4983 18.9782 21.5956 19.2909 22.7776 19.2909C26.4976 19.2909 29.5122 16.3137 29.5122 12.6398C29.5122 8.96583 26.4961 5.9917 22.7776 5.9917ZM22.7776 16.422C20.6644 16.422 18.951 14.7298 18.951 12.6428C18.951 10.5558 20.6644 8.86365 22.7776 8.86365C24.8908 8.86365 26.6042 10.5558 26.6042 12.6428C26.6042 14.7298 24.8908 16.422 22.7776 16.422Z" fill="black"/>
<path d="M65.0369 6.17572H53.2639V8.83865H60.0628L53.0131 19.0971H64.7296V16.4296H57.9903L65.0369 6.17572Z" fill="black"/>
<path d="M47.7707 6.21155V6.82929C46.8082 6.30444 45.7108 5.9917 44.532 5.9917C40.8119 5.9917 37.7974 8.96892 37.7974 12.6428C37.7974 16.3168 40.8119 19.294 44.532 19.294C45.7124 19.294 46.8113 18.9812 47.7707 18.4502V19.0679H50.9938V6.21155H47.7707ZM44.532 16.422C42.4188 16.422 40.7053 14.7298 40.7053 12.6428C40.7053 10.5558 42.4188 8.86365 44.532 8.86365C46.6451 8.86365 48.3586 10.5558 48.3586 12.6428C48.3586 14.7298 46.6451 16.422 44.532 16.422Z" fill="black"/>
</svg>
