<svg width="23" height="22" viewBox="0 0 23 22" fill="none" xmlns="http://www.w3.org/2000/svg">
<g id="Icon">
<g id="Solid">
<path d="M12.4166 2.75001C12.4166 2.24375 12.0062 1.83334 11.4999 1.83334C10.9937 1.83334 10.5833 2.24375 10.5833 2.75001V13.3703L6.6481 9.43516C6.29012 9.07718 5.70972 9.07718 5.35174 9.43516C4.99376 9.79314 4.99376 10.3735 5.35174 10.7315L10.8517 16.2315C11.2097 16.5895 11.7901 16.5895 12.1481 16.2315L17.6481 10.7315C18.0061 10.3735 18.0061 9.79314 17.6481 9.43516C17.2901 9.07718 16.7097 9.07718 16.3517 9.43516L12.4166 13.3703V2.75001Z" fill="black"/>
<path d="M2.33325 19.25C2.33325 18.7437 2.74366 18.3333 3.24992 18.3333H19.7499C20.2562 18.3333 20.6666 18.7437 20.6666 19.25C20.6666 19.7563 20.2562 20.1667 19.7499 20.1667H3.24992C2.74366 20.1667 2.33325 19.7563 2.33325 19.25Z" fill="black"/>
</g>
</g>
</svg>
