<svg width="310" height="310" viewBox="0 0 310 310" fill="none" xmlns="http://www.w3.org/2000/svg">
<rect x="3.76209" y="4.3136" width="301.83" height="301.83" rx="150.915" fill="white"/>
<rect x="3.76209" y="4.3136" width="301.83" height="301.83" rx="150.915" stroke="#E5E5E7" stroke-width="7.01929"/>
<g clip-path="url(#clip0_64_1833)">
<path d="M202.057 218.402H107.297C105.9 218.402 104.561 217.847 103.574 216.86C102.587 215.873 102.032 214.534 102.032 213.138V97.3193C102.032 95.9231 102.587 94.584 103.574 93.5967C104.561 92.6095 105.9 92.0548 107.297 92.0548H170.47L207.322 128.906V213.138C207.322 214.534 206.767 215.873 205.78 216.86C204.792 217.847 203.453 218.402 202.057 218.402Z" stroke="black" stroke-width="14.0386" stroke-linecap="round" stroke-linejoin="round"/>
<path d="M170.47 92.0548V128.906H207.322" stroke="black" stroke-width="14.0386" stroke-linecap="round" stroke-linejoin="round"/>
<path d="M133.619 160.493H175.735" stroke="#29C3D3" stroke-width="14.0386" stroke-linecap="round" stroke-linejoin="round"/>
<path d="M133.619 181.551H175.735" stroke="#29C3D3" stroke-width="14.0386" stroke-linecap="round" stroke-linejoin="round"/>
</g>
<defs>
<clipPath id="clip0_64_1833">
<rect width="168.463" height="168.463" fill="white" transform="translate(70.4453 70.9969)"/>
</clipPath>
</defs>
</svg>
