<svg width="310" height="310" viewBox="0 0 310 310" fill="none" xmlns="http://www.w3.org/2000/svg">
<rect x="3.77674" y="4.3136" width="301.83" height="301.83" rx="150.915" fill="white"/>
<rect x="3.77674" y="4.3136" width="301.83" height="301.83" rx="150.915" stroke="#E5E5E7" stroke-width="7.01929"/>
<path d="M175.75 218.402V180.498C175.75 176.567 175.75 174.601 174.984 173.1C174.312 171.779 173.238 170.705 171.917 170.032C170.415 169.267 168.45 169.267 164.519 169.267H144.865C140.933 169.267 138.968 169.267 137.466 170.032C136.146 170.705 135.072 171.779 134.399 173.1C133.634 174.601 133.634 176.567 133.634 180.498V218.402" stroke="#29C3D3" stroke-width="14.0386" stroke-linecap="round" stroke-linejoin="round"/>
<path d="M91.5181 120.132C91.5181 131.762 100.946 141.19 112.576 141.19C124.206 141.19 133.634 131.762 133.634 120.132C133.634 131.762 143.062 141.19 154.692 141.19C166.322 141.19 175.75 131.762 175.75 120.132C175.75 131.762 185.178 141.19 196.807 141.19C208.437 141.19 217.865 131.762 217.865 120.132M113.98 218.402H195.404C203.266 218.402 207.197 218.402 210.2 216.872C212.842 215.526 214.989 213.378 216.335 210.737C217.865 207.734 217.865 203.803 217.865 195.94V114.517C217.865 106.654 217.865 102.723 216.335 99.72C214.989 97.0785 212.842 94.9309 210.2 93.5849C207.197 92.0548 203.266 92.0548 195.404 92.0548H113.98C106.117 92.0548 102.186 92.0548 99.1833 93.5849C96.5417 94.9309 94.3941 97.0785 93.0482 99.72C91.5181 102.723 91.5181 106.654 91.5181 114.517V195.94C91.5181 203.803 91.5181 207.734 93.0482 210.737C94.3941 213.378 96.5417 215.526 99.1833 216.872C102.186 218.402 106.117 218.402 113.98 218.402Z" stroke="black" stroke-width="14.0386" stroke-linecap="round" stroke-linejoin="round"/>
</svg>
