<svg width="106" height="106" viewBox="0 0 106 106" fill="none" xmlns="http://www.w3.org/2000/svg">
<g clip-path="url(#clip0_83_2134)">
<path d="M22.5498 83.4502C18.7405 79.6408 21.2663 71.637 19.3284 66.9498C17.3161 62.1094 9.9375 58.1758 9.9375 53C9.9375 47.8242 17.3161 43.8906 19.3284 39.0502C21.2663 34.3672 18.7405 26.3592 22.5498 22.5498C26.3592 18.7405 34.3672 21.2663 39.0502 19.3284C43.9113 17.3161 47.8242 9.9375 53 9.9375C58.1758 9.9375 62.1094 17.3161 66.9498 19.3284C71.637 21.2663 79.6408 18.7405 83.4502 22.5498C87.2595 26.3592 84.7338 34.363 86.6716 39.0502C88.6839 43.9113 96.0625 47.8242 96.0625 53C96.0625 58.1758 88.6839 62.1094 86.6716 66.9498C84.7338 71.637 87.2595 79.6408 83.4502 83.4502C79.6408 87.2595 71.637 84.7338 66.9498 86.6716C62.1094 88.6839 58.1758 96.0625 53 96.0625C47.8242 96.0625 43.8906 88.6839 39.0502 86.6716C34.3672 84.7338 26.3592 87.2595 22.5498 83.4502Z" stroke="black" stroke-width="6.625" stroke-linecap="round" stroke-linejoin="round"/>
<path d="M53 33.125V56.3125" stroke="#00E6F5" stroke-width="6.625" stroke-linecap="round" stroke-linejoin="round"/>
<path d="M53 76.1875C55.7442 76.1875 57.9688 73.9629 57.9688 71.2188C57.9688 68.4746 55.7442 66.25 53 66.25C50.2558 66.25 48.0312 68.4746 48.0312 71.2188C48.0312 73.9629 50.2558 76.1875 53 76.1875Z" fill="#00E6F5"/>
</g>
<defs>
<clipPath id="clip0_83_2134">
<rect width="106" height="106" fill="white"/>
</clipPath>
</defs>
</svg>
