<svg width="310" height="310" viewBox="0 0 310 310" fill="none" xmlns="http://www.w3.org/2000/svg">
<rect x="4.35193" y="4.15595" width="301.83" height="301.83" rx="150.915" fill="white"/>
<rect x="4.35193" y="4.15595" width="301.83" height="301.83" rx="150.915" stroke="#E5E5E7" stroke-width="7.01929"/>
<path d="M116.661 116.465H116.731M193.873 116.465H193.943M116.661 193.677H116.731M162.286 162.09H162.356M193.873 193.677H193.943M169.305 186.658V218.244M218.44 169.109H186.854" stroke="#29C3D3" stroke-width="14.0386" stroke-linecap="round" stroke-linejoin="round"/>
<path d="M190.363 218.244H218.441V190.167M180.536 141.032H207.21C211.141 141.032 213.106 141.032 214.608 140.267C215.929 139.594 217.003 138.52 217.675 137.2C218.441 135.698 218.441 133.732 218.441 129.801V103.128C218.441 99.1968 218.441 97.2312 217.675 95.7297C217.003 94.4089 215.929 93.3351 214.608 92.6622C213.106 91.8971 211.141 91.8971 207.21 91.8971H180.536C176.605 91.8971 174.64 91.8971 173.138 92.6622C171.817 93.3351 170.744 94.4089 170.071 95.7297C169.305 97.2312 169.305 99.1968 169.305 103.128V129.801C169.305 133.732 169.305 135.698 170.071 137.2C170.744 138.52 171.817 139.594 173.138 140.267C174.64 141.032 176.605 141.032 180.536 141.032ZM103.324 141.032H129.997C133.929 141.032 135.894 141.032 137.396 140.267C138.716 139.594 139.79 138.52 140.463 137.2C141.228 135.698 141.228 133.732 141.228 129.801V103.128C141.228 99.1968 141.228 97.2312 140.463 95.7297C139.79 94.4089 138.716 93.3351 137.396 92.6622C135.894 91.8971 133.929 91.8971 129.997 91.8971H103.324C99.393 91.8971 97.4274 91.8971 95.9259 92.6622C94.6051 93.3351 93.5313 94.4089 92.8583 95.7297C92.0933 97.2312 92.0933 99.1968 92.0933 103.128V129.801C92.0933 133.732 92.0933 135.698 92.8583 137.2C93.5313 138.52 94.6051 139.594 95.9259 140.267C97.4274 141.032 99.393 141.032 103.324 141.032ZM103.324 218.244H129.997C133.929 218.244 135.894 218.244 137.396 217.479C138.716 216.806 139.79 215.733 140.463 214.412C141.228 212.91 141.228 210.945 141.228 207.013V180.34C141.228 176.409 141.228 174.443 140.463 172.942C139.79 171.621 138.716 170.547 137.396 169.874C135.894 169.109 133.929 169.109 129.997 169.109H103.324C99.393 169.109 97.4274 169.109 95.9259 169.874C94.6051 170.547 93.5313 171.621 92.8583 172.942C92.0933 174.443 92.0933 176.409 92.0933 180.34V207.013C92.0933 210.945 92.0933 212.91 92.8583 214.412C93.5313 215.733 94.6051 216.806 95.9259 217.479C97.4274 218.244 99.393 218.244 103.324 218.244Z" stroke="black" stroke-width="14.0386" stroke-linecap="round" stroke-linejoin="round"/>
</svg>
