<svg width="310" height="310" viewBox="0 0 310 310" fill="none" xmlns="http://www.w3.org/2000/svg">
<rect x="3.7909" y="4.3136" width="301.83" height="301.829" rx="150.914" fill="white"/>
<rect x="3.7909" y="4.3136" width="301.83" height="301.829" rx="150.914" stroke="#E5E5E7" stroke-width="7.01929"/>
<g clip-path="url(#clip0_64_1846)">
<path d="M154.706 197.344C159.067 197.344 162.602 193.809 162.602 189.447C162.602 185.086 159.067 181.551 154.706 181.551C150.345 181.551 146.809 185.086 146.809 189.447C146.809 193.809 150.345 197.344 154.706 197.344Z" fill="#29C3D3"/>
<path d="M154.706 165.757V160.493C166.334 160.493 175.764 152.241 175.764 142.067C175.764 131.894 166.334 123.642 154.706 123.642C143.078 123.642 133.648 131.894 133.648 142.067V144.699" stroke="#29C3D3" stroke-width="14.0386" stroke-linecap="round" stroke-linejoin="round"/>
<path d="M154.706 218.402C189.596 218.402 217.88 190.118 217.88 155.228C217.88 120.339 189.596 92.0548 154.706 92.0548C119.816 92.0548 91.5322 120.339 91.5322 155.228C91.5322 190.118 119.816 218.402 154.706 218.402Z" stroke="black" stroke-width="14.0386" stroke-linecap="round" stroke-linejoin="round"/>
</g>
<defs>
<clipPath id="clip0_64_1846">
<rect width="168.463" height="168.462" fill="white" transform="translate(70.4746 70.9969)"/>
</clipPath>
</defs>
</svg>
