<svg width="310" height="310" viewBox="0 0 310 310" fill="none" xmlns="http://www.w3.org/2000/svg">
<rect x="3.76062" y="4.47107" width="301.83" height="301.83" rx="150.915" fill="white"/>
<rect x="3.76062" y="4.47107" width="301.83" height="301.83" rx="150.915" stroke="#E5E5E7" stroke-width="7.01929"/>
<g clip-path="url(#clip0_64_1867)">
<path d="M204.688 144.857C214.864 144.857 223.113 136.607 223.113 126.431C223.113 116.255 214.864 108.006 204.688 108.006C194.512 108.006 186.262 116.255 186.262 126.431C186.262 136.607 194.512 144.857 204.688 144.857Z" stroke="#29C3D3" stroke-width="14.0386" stroke-linecap="round" stroke-linejoin="round"/>
<path d="M102.03 208.031H80.9725C79.5763 208.031 78.2372 207.476 77.2499 206.489C76.2627 205.501 75.708 204.162 75.708 202.766V176.444C75.708 175.048 76.2627 173.709 77.2499 172.721C78.2372 171.734 79.5763 171.179 80.9725 171.179H102.03" stroke="black" stroke-width="14.0386" stroke-linecap="round" stroke-linejoin="round"/>
<path d="M144.147 176.444H165.204L209.294 166.303C210.915 165.859 212.617 165.794 214.267 166.115C215.917 166.435 217.471 167.132 218.807 168.15C220.144 169.169 221.228 170.482 221.975 171.988C222.722 173.494 223.112 175.151 223.114 176.832C223.114 178.861 222.55 180.851 221.482 182.577C220.415 184.303 218.888 185.698 217.073 186.604L191.527 197.502L149.411 208.031H102.031V171.179L118.482 154.728C119.953 153.262 121.698 152.101 123.617 151.311C125.537 150.521 127.593 150.116 129.669 150.121H162.572C166.063 150.121 169.41 151.508 171.879 153.976C174.347 156.444 175.733 159.792 175.733 163.283C175.733 166.773 174.347 170.121 171.879 172.589C169.41 175.057 166.063 176.444 162.572 176.444H144.147Z" stroke="black" stroke-width="14.0386" stroke-linecap="round" stroke-linejoin="round"/>
<path d="M186.264 127.28C182.688 128.971 178.662 129.467 174.783 128.693C170.903 127.92 167.376 125.918 164.722 122.984C162.068 120.05 160.429 116.341 160.047 112.403C159.664 108.466 160.56 104.51 162.6 101.121C164.64 97.7314 167.717 95.0888 171.375 93.5836C175.034 92.0784 179.079 91.7905 182.914 92.7626C186.748 93.7347 190.168 95.9151 192.668 98.9814C195.167 102.048 196.614 105.837 196.793 109.789" stroke="#29C3D3" stroke-width="14.0386" stroke-linecap="round" stroke-linejoin="round"/>
</g>
<defs>
<clipPath id="clip0_64_1867">
<rect width="168.463" height="168.463" fill="white" transform="translate(70.4438 71.1543)"/>
</clipPath>
</defs>
</svg>
