<svg width="310" height="310" viewBox="0 0 310 310" fill="none" xmlns="http://www.w3.org/2000/svg">
<rect x="4.30359" y="4.15595" width="301.83" height="301.83" rx="150.915" fill="white"/>
<rect x="4.30359" y="4.15595" width="301.83" height="301.83" rx="150.915" stroke="#E5E5E7" stroke-width="7.01929"/>
<path d="M134.16 225.264C138.037 225.264 141.18 222.121 141.18 218.244C141.18 214.368 138.037 211.225 134.16 211.225C130.284 211.225 127.141 214.368 127.141 218.244C127.141 222.121 130.284 225.264 134.16 225.264Z" stroke="#29C3D3" stroke-width="14.0386" stroke-linecap="round" stroke-linejoin="round"/>
<path d="M190.315 225.264C194.191 225.264 197.334 222.121 197.334 218.244C197.334 214.368 194.191 211.225 190.315 211.225C186.438 211.225 183.295 214.368 183.295 218.244C183.295 222.121 186.438 225.264 190.315 225.264Z" stroke="#29C3D3" stroke-width="14.0386" stroke-linecap="round" stroke-linejoin="round"/>
<path d="M85.0254 84.8778H94.1937C95.9206 84.8778 96.7841 84.8778 97.4789 85.1954C98.0912 85.4752 98.6102 85.9253 98.9738 86.4919C99.3864 87.1348 99.5085 87.9896 99.7527 89.6991L103.075 112.955M103.075 112.955L110.459 167.224C111.396 174.111 111.864 177.554 113.51 180.146C114.961 182.43 117.041 184.246 119.5 185.376C122.29 186.658 125.765 186.658 132.715 186.658H192.786C199.402 186.658 202.71 186.658 205.413 185.467C207.797 184.418 209.841 182.726 211.318 180.58C212.994 178.147 213.613 174.898 214.851 168.399L224.142 119.621C224.577 117.334 224.795 116.19 224.479 115.296C224.202 114.512 223.656 113.851 222.937 113.432C222.118 112.955 220.954 112.955 218.625 112.955H103.075Z" stroke="black" stroke-width="14.0386" stroke-linecap="round" stroke-linejoin="round"/>
</svg>
