<svg width="38" height="38" viewBox="0 0 38 38" fill="none" xmlns="http://www.w3.org/2000/svg">
<path d="M22.6641 21.5207L17.7876 12.9498L21.2909 10.9147L27.3548 21.5207H22.6641Z" fill="black"/>
<path d="M9.67554 20.3198L13.1788 18.2711L15.0324 21.5207H10.3553L9.67554 20.3198Z" fill="black"/>
<path d="M16.5505 26.9885H17.5476V22.9093H16.5505V26.9885Z" fill="black"/>
<path d="M29.0455 27.0849C27.9306 27.0849 27.2599 26.5028 27.2236 25.6824H28.2751C28.2751 25.939 28.4337 26.3149 29.1135 26.3286C29.5667 26.3286 29.7797 26.0582 29.7797 25.8565C29.7525 25.5357 29.3537 25.5082 28.9277 25.4394C28.5017 25.3707 28.1391 25.2928 27.8763 25.1553C27.5409 24.9811 27.3143 24.6053 27.3143 24.1744C27.3143 23.4457 27.9397 22.8682 28.9821 22.8682C29.9927 22.8682 30.6318 23.4044 30.6997 24.2019H29.6845C29.6755 23.9865 29.6347 23.6473 29.0365 23.6473C28.6331 23.6473 28.3657 23.7298 28.3431 24.014C28.3431 24.4311 29.1815 24.4036 29.8341 24.5778C30.4595 24.7382 30.8584 25.1324 30.8584 25.6824C30.8584 26.6953 30.0471 27.0849 29.0455 27.0849Z" fill="black"/>
<path d="M13.7815 16.6805L17.2848 14.6364L21.2141 21.5206H17.5476V22.5289H16.5506V21.516L13.7815 16.6805Z" fill="black"/>
<path fill-rule="evenodd" clip-rule="evenodd" d="M13.8719 27.0849C12.7117 27.0849 11.769 26.1269 11.769 24.9673C11.769 23.794 12.7117 22.8681 13.8719 22.8681C14.3115 22.8681 14.7104 22.9873 15.0593 23.2302V21.5206H16.0564V26.9886H15.0593V26.7182C14.7104 26.9474 14.3115 27.0849 13.8719 27.0849ZM12.7253 24.9673C12.7253 25.5998 13.2601 26.1269 13.8991 26.1269C14.5245 26.1269 15.0593 25.5998 15.0593 24.9673C15.0593 24.3348 14.5245 23.794 13.8991 23.794C13.2601 23.794 12.7253 24.3348 12.7253 24.9673Z" fill="black"/>
<path fill-rule="evenodd" clip-rule="evenodd" d="M21.2412 21.5206H22.2247V26.9886H21.2412V26.7182C20.9058 26.9474 20.4934 27.0849 20.0402 27.0849C18.8936 27.0849 17.9509 26.1269 17.9509 24.9673C17.9509 23.794 18.8936 22.8681 20.0402 22.8681C20.4934 22.8681 20.8922 22.9873 21.2412 23.2302V21.5206ZM18.9208 24.9673C18.9208 25.5998 19.4556 26.1269 20.0674 26.1269C20.7064 26.1269 21.2412 25.5998 21.2412 24.9673C21.2412 24.3348 20.7064 23.794 20.0674 23.794C19.4556 23.794 18.9208 24.3348 18.9208 24.9673Z" fill="black"/>
<path fill-rule="evenodd" clip-rule="evenodd" d="M24.6496 27.0849C23.5075 27.0849 22.5603 26.1269 22.5603 24.9674C22.5603 23.794 23.5075 22.8682 24.6496 22.8682C25.0892 22.8682 25.5016 22.9873 25.837 23.2302V22.9048H26.834V26.9886H25.837V26.7182C25.5016 26.9474 25.1028 27.0849 24.6496 27.0849ZM23.5302 24.9674C23.5302 25.5999 24.0649 26.1269 24.6904 26.1269C25.3158 26.1269 25.837 25.5999 25.837 24.9674C25.837 24.3348 25.3158 23.794 24.6904 23.794C24.0649 23.794 23.5302 24.3348 23.5302 24.9674Z" fill="black"/>
<path fill-rule="evenodd" clip-rule="evenodd" d="M8.10264 24.9674C8.10264 25.5999 8.63743 26.1269 9.26285 26.1269C9.90187 26.1269 10.4367 25.5999 10.4367 24.9674C10.4367 24.3348 9.90187 23.794 9.26285 23.794C8.63743 23.794 8.10264 24.3348 8.10264 24.9674ZM9.23566 27.0849C8.08905 27.0849 7.14185 26.1269 7.14185 24.9674C7.14185 23.794 8.08905 22.8682 9.23566 22.8682C9.67527 22.8682 10.0877 22.9873 10.4367 23.2302V22.9048H11.4201V26.9886H10.4367V26.7182C10.1013 26.9474 9.68887 27.0849 9.23566 27.0849Z" fill="black"/>
</svg>
